inDegrees=no
num_controls=7
num_derivatives=13
num_iterations=116
num_multipliers=7
num_parameters=0
num_slacks=7
num_states=26
objective=0.545407
objective_accelerations=0.041691
objective_balance=0.003783
objective_effort=0.040613
objective_height=0.449871
objective_ligament=0.009450
solver_duration=1396.408090
status=Solve_Succeeded
success=true
DataType=double
version=3
OpenSimVersion=4.5
endheader
time	/jointset/ground_pelvis/pelvis_tilt/value	/jointset/ground_pelvis/pelvis_tx/value	/jointset/ground_pelvis/pelvis_ty/value	/jointset/hip_r/hip_flexion_r/value	/jointset/hip_r/hip_adduction_r/value	/jointset/hip_r/hip_rotation_r/value	/jointset/back/lumbar_extension/value	/jointset/patellofemoral_r/patellar_flexion_r/value	/jointset/knee_r/knee_flexion_r/value	/jointset/knee_r/knee_adduction_r/value	/jointset/knee_r/knee_rotation_r/value	/jointset/ankle_r/ankle_angle_r/value	/jointset/subtalar_r/subtalar_angle_r/value	/jointset/ground_pelvis/pelvis_tilt/speed	/jointset/ground_pelvis/pelvis_tx/speed	/jointset/ground_pelvis/pelvis_ty/speed	/jointset/hip_r/hip_flexion_r/speed	/jointset/hip_r/hip_adduction_r/speed	/jointset/hip_r/hip_rotation_r/speed	/jointset/back/lumbar_extension/speed	/jointset/patellofemoral_r/patellar_flexion_r/speed	/jointset/knee_r/knee_flexion_r/speed	/jointset/knee_r/knee_adduction_r/speed	/jointset/knee_r/knee_rotation_r/speed	/jointset/ankle_r/ankle_angle_r/speed	/jointset/subtalar_r/subtalar_angle_r/speed	/forceset/tau_hip_flexion_r	/forceset/tau_hip_adduction_r	/forceset/tau_hip_rotation_r	/forceset/tau_knee_flexion_r	/forceset/tau_ankle_angle_r	/forceset/tau_subtalar_angle_r	/forceset/tau_lumbar_extension	lambda_cid13_p0	lambda_cid14_p0	lambda_cid14_p1	lambda_cid14_p2	lambda_cid14_p3	lambda_cid14_p4	lambda_cid14_p5	/jointset/ground_pelvis/pelvis_tilt/accel	/jointset/ground_pelvis/pelvis_tx/accel	/jointset/ground_pelvis/pelvis_ty/accel	/jointset/hip_r/hip_flexion_r/accel	/jointset/hip_r/hip_adduction_r/accel	/jointset/hip_r/hip_rotation_r/accel	/jointset/back/lumbar_extension/accel	/jointset/patellofemoral_r/patellar_flexion_r/accel	/jointset/knee_r/knee_flexion_r/accel	/jointset/knee_r/knee_adduction_r/accel	/jointset/knee_r/knee_rotation_r/accel	/jointset/ankle_r/ankle_angle_r/accel	/jointset/subtalar_r/subtalar_angle_r/accel	gamma_cid13_p0	gamma_cid14_p0	gamma_cid14_p1	gamma_cid14_p2	gamma_cid14_p3	gamma_cid14_p4	gamma_cid14_p5
1	-0.3949791914038731	-0.04346762768789676	0.7034741162073007	1.460148018219853	-0.2309819769504713	-0.062235761019502	-0.4363153441994438	1.165767032284073	1.165767032284274	-0.02854465898553755	0.1745206521288158	0.2888237870776372	0.06167929798909386	-0.002806829928322088	0.002371646090866479	0.01195529902055749	-0.03094728316471845	0.001264399203333859	-0.008902497529457792	-0.0003477332315531482	-0.04197722664953391	-0.04197722664952941	0.0009135785681024359	2.778258696080603e-05	-0.009459648952280906	-0.0009364688958368271	-0.3363558172354339	0.0114131761237518	0.01215877560137769	-0.3933987918094836	0.05103306562079348	0.001426010190551455	0.3285892068790037	-2.792390778923152	-32.07624764217496	-4.138094988541893	0.138614949265307	14.39742328495067	-783.446672139004	54.06042861449267	1.689272152045044	0.1955944505386223	1.430490374277699	-5.168658040629988	0.07000934756319747	-0.7248115440449313	-0.02644550255193173	-4.274439094852703	-4.274439094852458	0.3517692811529283	0.009110023332639033	-0.9463420469005015	-0.1749074500078887	6.240251458651942e-10	-5.784264372982919e-10	6.839463567922348e-09	6.34148546465573e-09	2.553022965527417e-09	-3.816688204553451e-09	5.55816718679752e-09
1.01	-0.3949232242581308	-0.0434340785197477	0.7036651257976428	1.459580561826967	-0.230965753277836	-0.06236048936032242	-0.436319321538226	1.165133621710104	1.165133621710117	-0.02851760533817958	0.1745209975392252	0.2886819487704392	0.06166131061878664	0.01402998417410261	0.004347732852611265	0.02625293810830981	-0.0825940489075206	0.001980844293822649	-0.01604448192286923	-0.0004470652287822022	-0.08471776694920041	-0.08471776694917225	0.004499718046393809	4.104410867972991e-05	-0.01890048416909591	-0.002657906947054341	-0.336593388775259	0.01148798032214939	0.01216709247404763	-0.3932150911257691	0.05106970789684181	0.001393694012741437	0.3288581234031243	-2.816637870246101	-32.07134830584859	-4.150900459721529	0.1402320558961058	14.28811524608726	-783.6201375726558	54.0220487967669	1.685345304755434	0.2000482055731384	1.43034708176679	-5.170193536669592	0.07254091218126722	-0.7090888798858391	-0.001576653864215851	-4.275793517118621	-4.275793517115225	0.3624232418082713	-0.002601506900943058	-0.9418256696114621	-0.1702937310708037	9.904163182662819e-10	-5.302513348278162e-10	1.333268466191715e-08	1.149514911744118e-08	3.092176819270565e-09	-7.232117219065073e-09	1.042126061046574e-08
1.02	-0.3946979971182822	-0.04338048200066503	0.7039993010600111	1.458495136237541	-0.2309423493898177	-0.06255667694365541	-0.4363242721180668	1.164072419329221	1.164072419329042	-0.02845461290390761	0.1745214684201533	0.288445927828965	0.06162620251828885	0.03104516889309859	0.006381116277589696	0.04058843342576426	-0.134541122472893	0.002700442279891909	-0.02319434603214391	-0.0005423814482428161	-0.1275355880326677	-0.1275355880326176	0.008101335950326159	5.287669070100701e-05	-0.02829617580748968	-0.004360614933957126	-0.3368309603150724	0.01156278452055078	0.01217540934668862	-0.3930313904420563	0.05110635017288945	0.001361377834936983	0.3291270399272563	-2.857515227011596	-32.07534278117409	-4.162477158425241	0.1384709073698943	14.1935869384595	-783.93291703875	53.99837061676963	1.724946275359299	0.2070537831853533	1.438061620218126	-5.228719605144043	0.07063992667929372	-0.7263874872175855	-0.02564234699810116	-4.28989525161286	-4.289895251612961	0.3548649662811144	0.00882423539310931	-0.93731333121625	-0.1711614371449384	1.348653170863318e-09	-1.011322543558139e-09	1.916048821597933e-08	1.532804901449038e-08	4.554396146247705e-09	-1.104945158262403e-08	1.472925327840116e-08
1.03	-0.3943020747237017	-0.04330623526000086	0.7044770129043557	1.456888954740701	-0.2309117306828639	-0.0628242969184529	-0.4363295540606526	1.162582432271818	1.162582432271704	-0.02835536757966164	0.1745219909088359	0.2881160711232441	0.06157413318815801	0.04813545899360106	0.008480916662240063	0.05495972070369957	-0.1867253713967585	0.003424380689329897	-0.03032059024694075	-0.0004543586303630149	-0.1704971537779403	-0.1704971537779428	0.01176573748258818	4.496775721958245e-05	-0.0376779481678016	-0.006052519418365173	-0.3370578198442244	0.01165304993447539	0.01220216019387212	-0.3928514705717728	0.0512966497765728	0.001295587018501062	0.3295022946992414	-2.915403385462322	-32.03384894179736	-4.180523967046912	0.1376233927738203	14.03493494822044	-784.3102319628207	53.96659777568143	1.700493585667488	0.2133471012899951	1.437527073324882	-5.217806201374744	0.07343732769976649	-0.7043849167161209	0.03497186245917298	-4.30458712902854	-4.304587129036417	0.3749326114433093	-0.006592098726399123	-0.9390278722444778	-0.1680888757862234	1.706806816115415e-09	-1.497794224851738e-09	2.498150179514423e-08	1.91474717303586e-08	6.026034508666012e-09	-1.487088702117327e-08	1.903158165291074e-08
